<svg width="300" height="300" viewBox="0 0 300 300" fill="none" xmlns="http://www.w3.org/2000/svg">
<g clip-path="url(#clip0)">
<rect width="300" height="300" rx="25" fill="white"/>
<rect width="300" height="75" fill="#FF0000"/>
<rect y="75" width="300" height="75" fill="#0000FF"/>
<rect y="150" width="300" height="75" fill="#008000"/>
<rect y="225" width="300" height="75" fill="#FFFF00"/>
<g filter="url(#filter0_d)">
<path d="M71.8213 228.857H173.164L165.132 275H5.3418L48.4082 26.1719H107.026L71.8213 228.857ZM258.442 196.216H212.812L235.2 26.1719H295.015L258.442 196.216ZM194.868 250.22C194.64 241.903 197.546 234.839 203.584 229.028C209.622 223.104 217.085 220.142 225.972 220.142C234.744 220.142 242.036 222.819 247.847 228.174C253.657 233.529 256.676 240.194 256.904 248.169C257.132 256.714 254.227 263.892 248.188 269.702C242.15 275.399 234.688 278.247 225.801 278.247C217.256 278.247 210.021 275.627 204.097 270.386C198.172 265.031 195.096 258.309 194.868 250.22Z" fill="white"/>
<path d="M71.8213 228.857L70.3434 228.601L70.0383 230.357H71.8213V228.857ZM173.164 228.857L174.642 229.115L174.948 227.357H173.164V228.857ZM165.132 275V276.5H166.393L166.61 275.257L165.132 275ZM5.3418 275L3.86377 274.744L3.55988 276.5H5.3418V275ZM48.4082 26.1719V24.6719H47.1455L46.9302 25.9161L48.4082 26.1719ZM107.026 26.1719L108.504 26.4286L108.809 24.6719H107.026V26.1719ZM71.8213 230.357H173.164V227.357H71.8213V230.357ZM171.686 228.6L163.654 274.743L166.61 275.257L174.642 229.115L171.686 228.6ZM165.132 273.5H5.3418V276.5H165.132V273.5ZM6.81982 275.256L49.8862 26.4277L46.9302 25.9161L3.86377 274.744L6.81982 275.256ZM48.4082 27.6719H107.026V24.6719H48.4082V27.6719ZM105.548 25.9152L70.3434 228.601L73.2992 229.114L108.504 26.4286L105.548 25.9152ZM258.442 196.216V197.716H259.654L259.909 196.531L258.442 196.216ZM212.812 196.216L211.325 196.02L211.102 197.716H212.812V196.216ZM235.2 26.1719V24.6719H233.885L233.713 25.9761L235.2 26.1719ZM295.015 26.1719L296.481 26.4873L296.872 24.6719H295.015V26.1719ZM194.868 250.22L193.369 250.261L193.369 250.262L194.868 250.22ZM203.584 229.028L204.624 230.109L204.629 230.104L204.634 230.099L203.584 229.028ZM256.904 248.169L258.404 248.129L258.404 248.126L256.904 248.169ZM248.188 269.702L249.218 270.793L249.223 270.788L249.229 270.783L248.188 269.702ZM204.097 270.386L203.091 271.499L203.097 271.504L203.103 271.509L204.097 270.386ZM258.442 194.716H212.812V197.716H258.442V194.716ZM214.3 196.412L236.687 26.3677L233.713 25.9761L211.325 196.02L214.3 196.412ZM235.2 27.6719H295.015V24.6719H235.2V27.6719ZM293.548 25.8565L256.976 195.9L259.909 196.531L296.481 26.4873L293.548 25.8565ZM196.368 250.179C196.151 242.287 198.887 235.629 204.624 230.109L202.544 227.947C196.204 234.048 193.129 241.518 193.369 250.261L196.368 250.179ZM204.634 230.099C210.377 224.465 217.456 221.642 225.972 221.642V218.642C216.714 218.642 208.868 221.743 202.533 227.958L204.634 230.099ZM225.972 221.642C234.413 221.642 241.328 224.206 246.83 229.277L248.863 227.071C242.744 221.432 235.076 218.642 225.972 218.642V221.642ZM246.83 229.277C252.34 234.355 255.188 240.636 255.405 248.212L258.404 248.126C258.164 239.751 254.974 232.703 248.863 227.071L246.83 229.277ZM255.405 248.209C255.622 256.342 252.876 263.11 247.148 268.621L249.229 270.783C255.578 264.673 258.643 257.086 258.404 248.129L255.405 248.209ZM247.159 268.611C241.42 274.025 234.334 276.747 225.801 276.747V279.747C235.041 279.747 242.88 276.772 249.218 270.793L247.159 268.611ZM225.801 276.747C217.59 276.747 210.718 274.24 205.091 269.262L203.103 271.509C209.324 277.013 216.922 279.747 225.801 279.747V276.747ZM205.102 269.273C199.486 264.197 196.584 257.864 196.368 250.177L193.369 250.262C193.608 258.754 196.858 265.865 203.091 271.499L205.102 269.273Z" fill="black"/>
</g>
</g>
<defs>
<filter id="filter0_d" x="-0.440125" y="24.6719" width="301.312" height="263.075" filterUnits="userSpaceOnUse" color-interpolation-filters="sRGB">
<feFlood flood-opacity="0" result="BackgroundImageFix"/>
<feColorMatrix in="SourceAlpha" type="matrix" values="0 0 0 0 0 0 0 0 0 0 0 0 0 0 0 0 0 0 127 0"/>
<feOffset dy="4"/>
<feGaussianBlur stdDeviation="2"/>
<feColorMatrix type="matrix" values="0 0 0 0 0 0 0 0 0 0 0 0 0 0 0 0 0 0 0.25 0"/>
<feBlend mode="normal" in2="BackgroundImageFix" result="effect1_dropShadow"/>
<feBlend mode="normal" in="SourceGraphic" in2="effect1_dropShadow" result="shape"/>
</filter>
<clipPath id="clip0">
<rect width="300" height="300" rx="25" fill="white"/>
</clipPath>
</defs>
</svg>
